<mxfile host="app.diagrams.net" modified="2022-11-01T12:34:02.320Z" agent="5.0 (Windows NT 10.0; Win64; x64) AppleWebKit/537.36 (KHTML, like Gecko) Chrome/106.0.0.0 Safari/537.36" etag="H5dDwan1wxmOaAUU5RPZ" version="20.5.1" type="github">
  <diagram id="1gG8MEolRxr3eOi24UUM" name="Страница 1">
    <mxGraphModel dx="1314" dy="815" grid="1" gridSize="10" guides="1" tooltips="1" connect="1" arrows="1" fold="1" page="1" pageScale="1" pageWidth="827" pageHeight="1169" math="0" shadow="0">
      <root>
        <mxCell id="0" />
        <mxCell id="1" parent="0" />
        <mxCell id="j3cDPz18Dl61WBa1ze43-1" value=":DocRequest.aspx" style="shape=umlLifeline;perimeter=lifelinePerimeter;whiteSpace=wrap;html=1;container=1;collapsible=0;recursiveResize=0;outlineConnect=0;" vertex="1" parent="1">
          <mxGeometry x="80" y="40" width="120" height="2280" as="geometry" />
        </mxCell>
      </root>
    </mxGraphModel>
  </diagram>
</mxfile>
